<svg id="svg" fill="#CED6DD" stroke="#CED6DD" width="200" height="200" version="1.1" viewBox="144 144 512 512" xmlns="http://www.w3.org/2000/svg">
    <g id="IconSvg_bgCarrier" stroke-width="0"></g>
    <g id="IconSvg_tracerCarrier" stroke-linecap="round" stroke-linejoin="round" stroke="#CCCCCC" stroke-width="0">
      <g xmlns="http://www.w3.org/2000/svg">
  <path d="m531.46 612.54h-262.93c-5.3867 0-10.551-2.1406-14.359-5.9492-3.8086-3.8086-5.9492-8.9727-5.9492-14.359v-384.47c0-5.3867 2.1406-10.555 5.9492-14.363 3.8086-3.8086 8.9727-5.9492 14.359-5.9492h194.44c23.395 0 45.836 9.2852 62.398 25.816 16.559 16.527 25.883 38.953 25.922 62.352v316.61c0.003906 5.3047-2.0703 10.398-5.7773 14.195-3.707 3.7969-8.7539 5.9883-14.059 6.1133zm-262.93-409.34c-2.5195 0-4.5664 2.043-4.5664 4.5664v384.47c0 2.5195 2.0469 4.5664 4.5664 4.5664h262.93c2.5234 0 4.5664-2.0469 4.5664-4.5664v-316.61c-0.042969-19.305-7.7734-37.797-21.48-51.387-13.711-13.594-32.27-21.164-51.57-21.035z"></path>
  <path d="m483.44 337.02h-166.89c-4.3477 0-7.8711-3.5273-7.8711-7.875 0-4.3477 3.5234-7.8711 7.8711-7.8711h166.89c4.3477 0 7.8711 3.5234 7.8711 7.8711 0 4.3477-3.5234 7.875-7.8711 7.875z"></path>
  <path d="m483.44 407.87h-167.04c-4.3477 0-7.8711-3.5234-7.8711-7.8711s3.5234-7.875 7.8711-7.875h167.04c4.3477 0 7.8711 3.5273 7.8711 7.875s-3.5234 7.8711-7.8711 7.8711z"></path>
  <path d="m483.44 266.18h-166.89c-4.3477 0-7.8711-3.5273-7.8711-7.875 0-4.3477 3.5234-7.8711 7.8711-7.8711h166.89c4.3477 0 7.8711 3.5234 7.8711 7.8711 0 4.3477-3.5234 7.875-7.8711 7.875z"></path>
  <path d="m382.36 541.7h-13.066l-3.4648-9.918h-18.105l-3.4648 9.918h-12.594l17.949-48.965h14.641zm-19.523-18.895-5.9844-17.477-6.1406 17.477z"></path>
  <path d="m429.75 508.16c0.03125 2.1992-0.33984 4.3906-1.1016 6.4531-0.75781 1.9766-1.8789 3.793-3.3047 5.3555-4.2383 4.0039-9.9219 6.1055-15.746 5.8242h-7.8711v15.742h-12.594v-48.805h20.781c2.6445-0.027344 5.2852 0.23438 7.8711 0.78906 2.0156 0.51562 3.9336 1.3672 5.668 2.5195 1.9453 1.1719 3.5234 2.8594 4.5664 4.8789 1.1484 2.2422 1.7422 4.7227 1.7305 7.2422zm-13.066 0c0.046875-1.2969-0.34375-2.5703-1.1016-3.6211-0.70703-0.89844-1.625-1.6016-2.6758-2.0469-1.2031-0.48438-2.4844-0.75391-3.7812-0.78906h-7.2422v14.641h8.9727l0.003906 0.003906c1.2656-0.23438 2.4531-0.77344 3.4609-1.5742 0.8125-0.6875 1.457-1.5508 1.8906-2.5195 0.34766-1.2305 0.50781-2.5039 0.47266-3.7773z"></path>
  <path d="m465.18 541.7h-28.656v-8.6602h8.0312v-31.488h-8.0312v-8.6602h28.652v8.6602h-8.0312v31.488h8.0312z"></path>
 </g>

      </g>
     <g id="IconSvg_iconCarrier">
      <g xmlns="http://www.w3.org/2000/svg">
  <path d="m531.46 612.54h-262.93c-5.3867 0-10.551-2.1406-14.359-5.9492-3.8086-3.8086-5.9492-8.9727-5.9492-14.359v-384.47c0-5.3867 2.1406-10.555 5.9492-14.363 3.8086-3.8086 8.9727-5.9492 14.359-5.9492h194.44c23.395 0 45.836 9.2852 62.398 25.816 16.559 16.527 25.883 38.953 25.922 62.352v316.61c0.003906 5.3047-2.0703 10.398-5.7773 14.195-3.707 3.7969-8.7539 5.9883-14.059 6.1133zm-262.93-409.34c-2.5195 0-4.5664 2.043-4.5664 4.5664v384.47c0 2.5195 2.0469 4.5664 4.5664 4.5664h262.93c2.5234 0 4.5664-2.0469 4.5664-4.5664v-316.61c-0.042969-19.305-7.7734-37.797-21.48-51.387-13.711-13.594-32.27-21.164-51.57-21.035z"></path>
  <path d="m483.44 337.02h-166.89c-4.3477 0-7.8711-3.5273-7.8711-7.875 0-4.3477 3.5234-7.8711 7.8711-7.8711h166.89c4.3477 0 7.8711 3.5234 7.8711 7.8711 0 4.3477-3.5234 7.875-7.8711 7.875z"></path>
  <path d="m483.44 407.87h-167.04c-4.3477 0-7.8711-3.5234-7.8711-7.8711s3.5234-7.875 7.8711-7.875h167.04c4.3477 0 7.8711 3.5273 7.8711 7.875s-3.5234 7.8711-7.8711 7.8711z"></path>
  <path d="m483.44 266.18h-166.89c-4.3477 0-7.8711-3.5273-7.8711-7.875 0-4.3477 3.5234-7.8711 7.8711-7.8711h166.89c4.3477 0 7.8711 3.5234 7.8711 7.8711 0 4.3477-3.5234 7.875-7.8711 7.875z"></path>
  <path d="m382.36 541.7h-13.066l-3.4648-9.918h-18.105l-3.4648 9.918h-12.594l17.949-48.965h14.641zm-19.523-18.895-5.9844-17.477-6.1406 17.477z"></path>
  <path d="m429.75 508.16c0.03125 2.1992-0.33984 4.3906-1.1016 6.4531-0.75781 1.9766-1.8789 3.793-3.3047 5.3555-4.2383 4.0039-9.9219 6.1055-15.746 5.8242h-7.8711v15.742h-12.594v-48.805h20.781c2.6445-0.027344 5.2852 0.23438 7.8711 0.78906 2.0156 0.51562 3.9336 1.3672 5.668 2.5195 1.9453 1.1719 3.5234 2.8594 4.5664 4.8789 1.1484 2.2422 1.7422 4.7227 1.7305 7.2422zm-13.066 0c0.046875-1.2969-0.34375-2.5703-1.1016-3.6211-0.70703-0.89844-1.625-1.6016-2.6758-2.0469-1.2031-0.48438-2.4844-0.75391-3.7812-0.78906h-7.2422v14.641h8.9727l0.003906 0.003906c1.2656-0.23438 2.4531-0.77344 3.4609-1.5742 0.8125-0.6875 1.457-1.5508 1.8906-2.5195 0.34766-1.2305 0.50781-2.5039 0.47266-3.7773z"></path>
  <path d="m465.18 541.7h-28.656v-8.6602h8.0312v-31.488h-8.0312v-8.6602h28.652v8.6602h-8.0312v31.488h8.0312z"></path>
 </g>

      </g>
      </svg>