<svg id="svg" fill="#CED6DD" stroke="#CED6DD" width="200" height="200" version="1.1" viewBox="144 144 512 512" xmlns="http://www.w3.org/2000/svg">
    <g id="IconSvg_bgCarrier" stroke-width="0"></g>
    <g id="IconSvg_tracerCarrier" stroke-linecap="round" stroke-linejoin="round" stroke="#CCCCCC" stroke-width="0">
      <g xmlns="http://www.w3.org/2000/svg">
  <path d="m174.05 614.05c0 1.6133 0.13672 3.1992 0.27734 4.7852l0.67188 7.875h210.9l0.67188-7.875c0.14062-1.5859 0.27734-3.1758 0.27734-4.7852 0-27.633-17.227-52.109-43.609-67.336-2.6758 4.375-5.6172 8.5-8.8828 12.27 21.73 12 36.199 30.984 37.25 52.543h-182.32c0.99609-20.453 14.031-38.637 33.922-50.691-3.3672-3.668-6.4492-7.6641-9.2344-11.957-24.305 15.336-39.926 38.836-39.926 65.172z"></path>
  <path d="m277.91 563.38c33.582 0 60.809-31.762 60.809-70.938 0-39.176-27.227-70.941-60.809-70.941-33.578 0-60.805 31.762-60.805 70.941 0 39.184 27.227 70.938 60.805 70.938zm0-126.7c25.16 0 45.625 25.016 45.625 55.762 0 30.742-20.465 55.758-45.625 55.758-25.156 0-45.625-25.016-45.625-55.758 0-30.75 20.469-55.762 45.625-55.762z"></path>
  <path d="m347.86 186.99v251.09c0 4.1953 3.4375 6.9766 7.0117 6.9766 1.707 0 3.457-0.63672 4.8711-2.0508l56.477-56.477c1.3047-1.3047 3.0781-2.0391 4.9219-2.0391h204.8v-211.21h-264.38c-7.5703 0-13.707 6.1367-13.707 13.707zm15.18 1.4727h247.73v180.85h-189.62c-5.9141 0-11.477 2.3008-15.66 6.4844l-42.445 42.445v-229.78z"></path>
  <path d="m482.42 307.02c-4.7461 0-8.6875 1.3945-11.828 4.1797-3.1445 2.7852-4.7148 6.2578-4.7148 10.41 0 4.0312 1.5703 7.5312 4.7148 10.496 3.1445 2.8477 7.0898 4.2656 11.828 4.2656 4.7422 0 8.6602-1.3945 11.742-4.1797 3.0234-2.7852 4.5352-6.3164 4.5352-10.586 0-4.2109-1.543-7.6797-4.625-10.41-3.082-2.7773-6.9688-4.1758-11.652-4.1758z"></path>
  <path d="m480.11 227.94c2.1367 0 4.0742 0.32812 5.8242 0.97656 1.75 0.64844 3.2305 1.543 4.4492 2.6719s2.1523 2.4727 2.8008 4.0469c0.65625 1.5703 0.97656 3.2734 0.97656 5.1133 0 2.1367-0.29688 4.0742-0.89062 5.8242s-1.4805 3.4414-2.6719 5.0664c-1.1836 1.6328-2.625 3.2578-4.3125 4.8906s-3.6641 3.3945-5.9141 5.2969c-2.1367 1.7773-4.0039 3.5703-5.6016 5.3789-1.6016 1.8086-2.9375 3.707-4 5.6914-1.0664 1.9844-1.8672 4.1055-2.4023 6.3594-0.53516 2.2539-0.80078 4.7461-0.80078 7.4727 0 1.7188 0.16016 3.543 0.48828 5.4727s0.78516 3.6641 1.3789 5.2031h23.398c-0.64844-1.0078-1.168-2.2539-1.5586-3.7383-0.38672-1.4805-0.57812-2.9375-0.57812-4.3594 0-2.0742 0.26562-3.9297 0.80078-5.5625 0.53516-1.6328 1.3203-3.1758 2.3594-4.625 1.0391-1.4492 2.3438-2.9219 3.9141-4.4023s3.3945-3.082 5.4727-4.8008c3.082-2.5508 5.8086-5.0273 8.1836-7.4258 2.3711-2.4023 4.3594-4.9062 5.9609-7.5156 1.6016-2.6094 2.8164-5.3789 3.6484-8.3164s1.2461-6.2109 1.2461-9.8281c0-5.6914-0.99219-10.57-2.9766-14.629-1.9844-4.0625-4.7461-7.3945-8.2734-10.004s-7.6641-4.5234-12.41-5.7383c-4.7461-1.2148-9.875-1.8242-15.387-1.8242-5.7539 0-11.324 0.67969-16.723 2.0469-5.3945 1.3672-10.379 3.4102-14.941 6.1367v26.777c4.4492-3.9141 9.1641-6.8359 14.141-8.7617 4.9648-1.9297 9.7734-2.8945 14.398-2.8945z"></path>
 </g>

      </g>
     <g id="IconSvg_iconCarrier">
      <g xmlns="http://www.w3.org/2000/svg">
  <path d="m174.05 614.05c0 1.6133 0.13672 3.1992 0.27734 4.7852l0.67188 7.875h210.9l0.67188-7.875c0.14062-1.5859 0.27734-3.1758 0.27734-4.7852 0-27.633-17.227-52.109-43.609-67.336-2.6758 4.375-5.6172 8.5-8.8828 12.27 21.73 12 36.199 30.984 37.25 52.543h-182.32c0.99609-20.453 14.031-38.637 33.922-50.691-3.3672-3.668-6.4492-7.6641-9.2344-11.957-24.305 15.336-39.926 38.836-39.926 65.172z"></path>
  <path d="m277.91 563.38c33.582 0 60.809-31.762 60.809-70.938 0-39.176-27.227-70.941-60.809-70.941-33.578 0-60.805 31.762-60.805 70.941 0 39.184 27.227 70.938 60.805 70.938zm0-126.7c25.16 0 45.625 25.016 45.625 55.762 0 30.742-20.465 55.758-45.625 55.758-25.156 0-45.625-25.016-45.625-55.758 0-30.75 20.469-55.762 45.625-55.762z"></path>
  <path d="m347.86 186.99v251.09c0 4.1953 3.4375 6.9766 7.0117 6.9766 1.707 0 3.457-0.63672 4.8711-2.0508l56.477-56.477c1.3047-1.3047 3.0781-2.0391 4.9219-2.0391h204.8v-211.21h-264.38c-7.5703 0-13.707 6.1367-13.707 13.707zm15.18 1.4727h247.73v180.85h-189.62c-5.9141 0-11.477 2.3008-15.66 6.4844l-42.445 42.445v-229.78z"></path>
  <path d="m482.42 307.02c-4.7461 0-8.6875 1.3945-11.828 4.1797-3.1445 2.7852-4.7148 6.2578-4.7148 10.41 0 4.0312 1.5703 7.5312 4.7148 10.496 3.1445 2.8477 7.0898 4.2656 11.828 4.2656 4.7422 0 8.6602-1.3945 11.742-4.1797 3.0234-2.7852 4.5352-6.3164 4.5352-10.586 0-4.2109-1.543-7.6797-4.625-10.41-3.082-2.7773-6.9688-4.1758-11.652-4.1758z"></path>
  <path d="m480.11 227.94c2.1367 0 4.0742 0.32812 5.8242 0.97656 1.75 0.64844 3.2305 1.543 4.4492 2.6719s2.1523 2.4727 2.8008 4.0469c0.65625 1.5703 0.97656 3.2734 0.97656 5.1133 0 2.1367-0.29688 4.0742-0.89062 5.8242s-1.4805 3.4414-2.6719 5.0664c-1.1836 1.6328-2.625 3.2578-4.3125 4.8906s-3.6641 3.3945-5.9141 5.2969c-2.1367 1.7773-4.0039 3.5703-5.6016 5.3789-1.6016 1.8086-2.9375 3.707-4 5.6914-1.0664 1.9844-1.8672 4.1055-2.4023 6.3594-0.53516 2.2539-0.80078 4.7461-0.80078 7.4727 0 1.7188 0.16016 3.543 0.48828 5.4727s0.78516 3.6641 1.3789 5.2031h23.398c-0.64844-1.0078-1.168-2.2539-1.5586-3.7383-0.38672-1.4805-0.57812-2.9375-0.57812-4.3594 0-2.0742 0.26562-3.9297 0.80078-5.5625 0.53516-1.6328 1.3203-3.1758 2.3594-4.625 1.0391-1.4492 2.3438-2.9219 3.9141-4.4023s3.3945-3.082 5.4727-4.8008c3.082-2.5508 5.8086-5.0273 8.1836-7.4258 2.3711-2.4023 4.3594-4.9062 5.9609-7.5156 1.6016-2.6094 2.8164-5.3789 3.6484-8.3164s1.2461-6.2109 1.2461-9.8281c0-5.6914-0.99219-10.57-2.9766-14.629-1.9844-4.0625-4.7461-7.3945-8.2734-10.004s-7.6641-4.5234-12.41-5.7383c-4.7461-1.2148-9.875-1.8242-15.387-1.8242-5.7539 0-11.324 0.67969-16.723 2.0469-5.3945 1.3672-10.379 3.4102-14.941 6.1367v26.777c4.4492-3.9141 9.1641-6.8359 14.141-8.7617 4.9648-1.9297 9.7734-2.8945 14.398-2.8945z"></path>
 </g>

      </g>
      </svg>