<svg id="svg" fill="#228B22" stroke="#228B22" width="200" height="200" version="1.1" viewBox="144 144 512 512" xmlns="http://www.w3.org/2000/svg">
    <g id="IconSvg_bgCarrier" stroke-width="0"></g>
    <g id="IconSvg_tracerCarrier" stroke-linecap="round" stroke-linejoin="round" stroke="#CCCCCC" stroke-width="0">
      <path xmlns="http://www.w3.org/2000/svg" d="m643.04 531.79c-1.1406-17.16-9.1562-33.129-22.23-44.297-13.078-11.168-30.105-16.586-47.23-15.027l-31.488 2.8594-9.0195-9.0117 7.5039-8.3828-0.003907-0.003906c2.8945-3.8789 4.2266-8.6992 3.7305-13.512-0.49609-4.8125-2.7852-9.2617-6.4062-12.469l-19.625-21.254c3.0977-3.8945 4.6055-8.8203 4.2266-13.785-0.38281-4.9648-2.625-9.6016-6.2812-12.977l-22.371-22.324-0.003906-0.003906c-2.0156-2-4.3945-3.6016-7.0039-4.7227 0.875-2.5234 1.1797-5.2148 0.88672-7.8711-0.49609-4.5586-2.8438-8.7109-6.4922-11.484l-36.023-27.363c-2.5039-1.8672-5.4648-3.0234-8.5703-3.3398-3.1094-0.3125-6.2422 0.21875-9.0703 1.543l-37.352-20.648c-3.8477-2.1445-8.3086-2.9258-12.656-2.2109s-8.3242 2.8828-11.285 6.1484l-3.7148 4.0781-37.91-37.91 2.9258-31.387c1.5586-17.129-3.8555-34.156-15.023-47.234-11.168-13.078-27.141-21.094-44.297-22.238l-48.227-3.2109c-5.5234-0.42969-10.715 2.668-12.965 7.7305-2.3125 5.0273-1.2344 10.965 2.6992 14.855l45.508 45.516-33.391 33.422-45.516-45.508c-3.9062-3.9023-9.8203-4.9805-14.848-2.7031-5.0312 2.2734-8.125 7.4297-7.7695 12.938l3.2109 48.184c1.1211 17.172 9.1328 33.164 22.211 44.344 13.078 11.184 30.117 16.609 47.254 15.051l31.488-2.8594 26.859 26.852-19.227 21.551c-4.3828 4.9258-7.3438 10.953-8.5625 17.434l-17.211 91.773c-2.8359 15.215-11.043 28.902-23.125 38.574l-63.16 50.48c-1.6445 1.3008-2.7031 3.2031-2.9414 5.2852-0.23828 2.082 0.36328 4.1758 1.6719 5.8125 1.3086 1.6367 3.2188 2.6836 5.3008 2.9102 2.0859 0.22266 4.1719-0.39062 5.8008-1.7109l63.156-50.523h0.003906c15.016-12.016 25.227-29.02 28.77-47.922l17.227-91.758c0.6875-3.6758 2.3672-7.0938 4.8555-9.8867l39.762-44.746c3.4102-3.8242 8.125-6.2383 13.219-6.7695 5.0977-0.53125 10.207 0.85938 14.332 3.8984l32.34 25.781c6.5977 5.3281 10.023 13.652 9.0938 22.082-0.92969 8.4297-6.0898 15.805-13.688 19.57-7.6016 3.7617-16.594 3.3984-23.863-0.97266l-7.3359-4.4023v0.003906c-4.043-2.4219-9.1719-2.0273-12.797 0.98438-3.6289 3.0078-4.9609 7.9766-3.3242 12.398 0.13281 0.35938 0.29297 0.70703 0.47656 1.0469l14.043 25.379h0.003906c5.1562 9.4023 7.1484 20.219 5.6797 30.844s-6.3242 20.492-13.844 28.141c-2.7031 3.1406-2.5078 7.8398 0.44141 10.746 2.9531 2.9062 7.6562 3.0273 10.754 0.27344 9.8789-10.07 16.258-23.059 18.188-37.035 1.9336-13.977-0.6875-28.207-7.4688-40.582l-6.1094-11.02c6.2031 2.293 12.879 3.0273 19.43 2.1328 7.5195 10.539 19.367 17.152 32.285 18.02 0.90625 0.046875 1.8008 0.078125 2.6992 0.078125 5.4648 0 10.875-1.1133 15.902-3.2656 1.3711 8.5508 5.6797 16.359 12.184 22.078 6.7344 6.1406 15.477 9.6055 24.586 9.7461 0.66797 0 1.332 0 2-0.0625 1.9805-0.12109 3.9453-0.42578 5.8711-0.91406 3.4453 12.566 13 22.547 25.402 26.531l-0.65234 0.73047c-6.0625 6.7852-11.699 13.949-17.16 20.875l-5.2969 6.6992-0.003907 0.003906c-8.375 10.484-19.258 18.691-31.645 23.859l-51.453 21.434h0.003906c-11.598 4.8516-21.902 12.344-30.098 21.879l-40.707 47.484 0.003906-0.003906c-2.6914 3.3164-2.2539 8.1719 0.98828 10.945 3.2461 2.7773 8.1094 2.4609 10.969-0.71094l40.699-47.492h-0.003906c6.5898-7.6602 14.879-13.684 24.199-17.586l51.453-21.434c12.168-5.1328 23.145-12.73 32.227-22.316l4.1797 4.1875-2.8594 31.449h0.003906c-1.5586 17.121 3.8594 34.148 15.027 47.227 11.164 13.078 27.133 21.098 44.289 22.242l48.191 3.2109h0.92188c5.3555-0.019531 10.176-3.2578 12.219-8.2109 2.043-4.9492 0.91016-10.645-2.875-14.438l-45.508-45.516 33.395-33.395 45.516 45.516-0.003906 0.003906c3.9062 3.9023 9.8203 4.9805 14.848 2.7031 5.0312-2.2734 8.125-7.4297 7.7695-12.938zm-260.41-230.26 32.574 18.004-27.648 30.535-0.78906-0.62891-0.085938-0.078125-29.836-23.867 21.098-23.191 0.003906-0.003906c1.1914-1.3164 3.1328-1.6367 4.6836-0.76953zm-77.32 26.836-10.102 11.359-28.805-28.797h0.003906c-1.6562-1.6523-3.9648-2.4883-6.2969-2.2812l-35.109 3.1875c-12.902 1.1758-25.73-2.9062-35.582-11.316-9.8477-8.4141-15.887-20.449-16.742-33.375l-2.7734-41.586 46.445 46.445c3.0742 3.0742 8.0586 3.0742 11.133 0l44.523-44.523c3.0742-3.0742 3.0742-8.0586 0-11.133l-46.445-46.445 41.613 2.7695-0.003907 0.003906c12.926 0.85938 24.953 6.9023 33.363 16.754 8.4062 9.8516 12.484 22.68 11.305 35.578l-3.1484 35.125c-0.21484 2.332 0.62109 4.6406 2.2812 6.2969l41.016 41.02-9.2812 10.234c-6.6055-1.9453-13.625-1.9727-20.246-0.082032s-12.566 5.625-17.148 10.766zm94.629 95.25c-6.5703-0.44531-12.758-3.2383-17.441-7.8711 3.7891-2.3242 7.1758-5.25 10.027-8.6602 5.1211-6.0977 8.3164-13.574 9.1914-21.488s-0.61328-15.91-4.2773-22.98l35.48-39.086-0.003906 0.003906c0.64453-0.875 1.8008-1.2031 2.8047-0.78906l36.023 27.363h-0.003906c0.24609 0.1875 0.38672 0.48047 0.38672 0.78906 0.0625 0.76172-0.19531 1.5156-0.70703 2.0859l-50.859 62.055h-0.003907c-5.1016 5.9961-12.766 9.1836-20.617 8.5781zm55.441 28.605 0.003906 0.003906c-5.5977 0.16016-11.031-1.875-15.145-5.668-3.5586-2.6992-5.9922-6.6172-6.8242-11.004-0.83203-4.3867-0.011718-8.9258 2.3125-12.738l41.004-51.215c0.42188-0.46875 1.0234-0.73047 1.6523-0.71094 1.6562 0 3.2422 0.67969 4.3789 1.8828l22.363 22.316c1.875 1.875 2.2031 4.2734 1.3242 5.2734l-4.5742 5.2344s-0.078125 0.046875-0.10938 0.078125l-8.7383 10.02-28.133 32.125-0.003906 0.003906c-2.4453 2.6914-5.875 4.2773-9.5078 4.4023zm30.352 22.879c-4.625-3.1992-7.7734-8.1133-8.7539-13.648-0.27734-1.6172 0.10547-3.2734 1.0625-4.6055l27.977-32.086 1.8594-2.1172 18.492 20.004-0.003906-0.003906c1.3125 1.2969 2.1875 2.9688 2.5117 4.7852l-27.23 30.426c-2.3984 2.6875-9.3672 2.207-15.914-2.7539zm97.961 52.93h-0.003906c-3.1211-2.9531-8.0078-2.9531-11.129 0l-44.527 44.527c-3.0703 3.0742-3.0703 8.0547 0 11.129l46.445 46.445-41.621-2.7695h0.003907c-12.934-0.86328-24.969-6.9062-33.383-16.766-8.4141-9.8555-12.492-22.695-11.309-35.602l3.1953-35.125c0.21484-2.332-0.62109-4.6406-2.2812-6.2969l-7.707-7.6211 0.78906-1.0078c5.3125-6.7461 10.809-13.715 16.531-20.129l14.664-16.457 9.2109-10.281 11.02 11.02c1.668 1.6406 3.9688 2.4727 6.2969 2.2852l35.125-3.1953v-0.003906c12.902-1.1758 25.73 2.9062 35.582 11.32 9.8516 8.4102 15.887 20.445 16.746 33.371l2.7695 41.613z"></path>

      </g>
     <g id="IconSvg_iconCarrier">
      <path xmlns="http://www.w3.org/2000/svg" d="m643.04 531.79c-1.1406-17.16-9.1562-33.129-22.23-44.297-13.078-11.168-30.105-16.586-47.23-15.027l-31.488 2.8594-9.0195-9.0117 7.5039-8.3828-0.003907-0.003906c2.8945-3.8789 4.2266-8.6992 3.7305-13.512-0.49609-4.8125-2.7852-9.2617-6.4062-12.469l-19.625-21.254c3.0977-3.8945 4.6055-8.8203 4.2266-13.785-0.38281-4.9648-2.625-9.6016-6.2812-12.977l-22.371-22.324-0.003906-0.003906c-2.0156-2-4.3945-3.6016-7.0039-4.7227 0.875-2.5234 1.1797-5.2148 0.88672-7.8711-0.49609-4.5586-2.8438-8.7109-6.4922-11.484l-36.023-27.363c-2.5039-1.8672-5.4648-3.0234-8.5703-3.3398-3.1094-0.3125-6.2422 0.21875-9.0703 1.543l-37.352-20.648c-3.8477-2.1445-8.3086-2.9258-12.656-2.2109s-8.3242 2.8828-11.285 6.1484l-3.7148 4.0781-37.91-37.91 2.9258-31.387c1.5586-17.129-3.8555-34.156-15.023-47.234-11.168-13.078-27.141-21.094-44.297-22.238l-48.227-3.2109c-5.5234-0.42969-10.715 2.668-12.965 7.7305-2.3125 5.0273-1.2344 10.965 2.6992 14.855l45.508 45.516-33.391 33.422-45.516-45.508c-3.9062-3.9023-9.8203-4.9805-14.848-2.7031-5.0312 2.2734-8.125 7.4297-7.7695 12.938l3.2109 48.184c1.1211 17.172 9.1328 33.164 22.211 44.344 13.078 11.184 30.117 16.609 47.254 15.051l31.488-2.8594 26.859 26.852-19.227 21.551c-4.3828 4.9258-7.3438 10.953-8.5625 17.434l-17.211 91.773c-2.8359 15.215-11.043 28.902-23.125 38.574l-63.16 50.48c-1.6445 1.3008-2.7031 3.2031-2.9414 5.2852-0.23828 2.082 0.36328 4.1758 1.6719 5.8125 1.3086 1.6367 3.2188 2.6836 5.3008 2.9102 2.0859 0.22266 4.1719-0.39062 5.8008-1.7109l63.156-50.523h0.003906c15.016-12.016 25.227-29.02 28.77-47.922l17.227-91.758c0.6875-3.6758 2.3672-7.0938 4.8555-9.8867l39.762-44.746c3.4102-3.8242 8.125-6.2383 13.219-6.7695 5.0977-0.53125 10.207 0.85938 14.332 3.8984l32.34 25.781c6.5977 5.3281 10.023 13.652 9.0938 22.082-0.92969 8.4297-6.0898 15.805-13.688 19.57-7.6016 3.7617-16.594 3.3984-23.863-0.97266l-7.3359-4.4023v0.003906c-4.043-2.4219-9.1719-2.0273-12.797 0.98438-3.6289 3.0078-4.9609 7.9766-3.3242 12.398 0.13281 0.35938 0.29297 0.70703 0.47656 1.0469l14.043 25.379h0.003906c5.1562 9.4023 7.1484 20.219 5.6797 30.844s-6.3242 20.492-13.844 28.141c-2.7031 3.1406-2.5078 7.8398 0.44141 10.746 2.9531 2.9062 7.6562 3.0273 10.754 0.27344 9.8789-10.07 16.258-23.059 18.188-37.035 1.9336-13.977-0.6875-28.207-7.4688-40.582l-6.1094-11.02c6.2031 2.293 12.879 3.0273 19.43 2.1328 7.5195 10.539 19.367 17.152 32.285 18.02 0.90625 0.046875 1.8008 0.078125 2.6992 0.078125 5.4648 0 10.875-1.1133 15.902-3.2656 1.3711 8.5508 5.6797 16.359 12.184 22.078 6.7344 6.1406 15.477 9.6055 24.586 9.7461 0.66797 0 1.332 0 2-0.0625 1.9805-0.12109 3.9453-0.42578 5.8711-0.91406 3.4453 12.566 13 22.547 25.402 26.531l-0.65234 0.73047c-6.0625 6.7852-11.699 13.949-17.16 20.875l-5.2969 6.6992-0.003907 0.003906c-8.375 10.484-19.258 18.691-31.645 23.859l-51.453 21.434h0.003906c-11.598 4.8516-21.902 12.344-30.098 21.879l-40.707 47.484 0.003906-0.003906c-2.6914 3.3164-2.2539 8.1719 0.98828 10.945 3.2461 2.7773 8.1094 2.4609 10.969-0.71094l40.699-47.492h-0.003906c6.5898-7.6602 14.879-13.684 24.199-17.586l51.453-21.434c12.168-5.1328 23.145-12.73 32.227-22.316l4.1797 4.1875-2.8594 31.449h0.003906c-1.5586 17.121 3.8594 34.148 15.027 47.227 11.164 13.078 27.133 21.098 44.289 22.242l48.191 3.2109h0.92188c5.3555-0.019531 10.176-3.2578 12.219-8.2109 2.043-4.9492 0.91016-10.645-2.875-14.438l-45.508-45.516 33.395-33.395 45.516 45.516-0.003906 0.003906c3.9062 3.9023 9.8203 4.9805 14.848 2.7031 5.0312-2.2734 8.125-7.4297 7.7695-12.938zm-260.41-230.26 32.574 18.004-27.648 30.535-0.78906-0.62891-0.085938-0.078125-29.836-23.867 21.098-23.191 0.003906-0.003906c1.1914-1.3164 3.1328-1.6367 4.6836-0.76953zm-77.32 26.836-10.102 11.359-28.805-28.797h0.003906c-1.6562-1.6523-3.9648-2.4883-6.2969-2.2812l-35.109 3.1875c-12.902 1.1758-25.73-2.9062-35.582-11.316-9.8477-8.4141-15.887-20.449-16.742-33.375l-2.7734-41.586 46.445 46.445c3.0742 3.0742 8.0586 3.0742 11.133 0l44.523-44.523c3.0742-3.0742 3.0742-8.0586 0-11.133l-46.445-46.445 41.613 2.7695-0.003907 0.003906c12.926 0.85938 24.953 6.9023 33.363 16.754 8.4062 9.8516 12.484 22.68 11.305 35.578l-3.1484 35.125c-0.21484 2.332 0.62109 4.6406 2.2812 6.2969l41.016 41.02-9.2812 10.234c-6.6055-1.9453-13.625-1.9727-20.246-0.082032s-12.566 5.625-17.148 10.766zm94.629 95.25c-6.5703-0.44531-12.758-3.2383-17.441-7.8711 3.7891-2.3242 7.1758-5.25 10.027-8.6602 5.1211-6.0977 8.3164-13.574 9.1914-21.488s-0.61328-15.91-4.2773-22.98l35.48-39.086-0.003906 0.003906c0.64453-0.875 1.8008-1.2031 2.8047-0.78906l36.023 27.363h-0.003906c0.24609 0.1875 0.38672 0.48047 0.38672 0.78906 0.0625 0.76172-0.19531 1.5156-0.70703 2.0859l-50.859 62.055h-0.003907c-5.1016 5.9961-12.766 9.1836-20.617 8.5781zm55.441 28.605 0.003906 0.003906c-5.5977 0.16016-11.031-1.875-15.145-5.668-3.5586-2.6992-5.9922-6.6172-6.8242-11.004-0.83203-4.3867-0.011718-8.9258 2.3125-12.738l41.004-51.215c0.42188-0.46875 1.0234-0.73047 1.6523-0.71094 1.6562 0 3.2422 0.67969 4.3789 1.8828l22.363 22.316c1.875 1.875 2.2031 4.2734 1.3242 5.2734l-4.5742 5.2344s-0.078125 0.046875-0.10938 0.078125l-8.7383 10.02-28.133 32.125-0.003906 0.003906c-2.4453 2.6914-5.875 4.2773-9.5078 4.4023zm30.352 22.879c-4.625-3.1992-7.7734-8.1133-8.7539-13.648-0.27734-1.6172 0.10547-3.2734 1.0625-4.6055l27.977-32.086 1.8594-2.1172 18.492 20.004-0.003906-0.003906c1.3125 1.2969 2.1875 2.9688 2.5117 4.7852l-27.23 30.426c-2.3984 2.6875-9.3672 2.207-15.914-2.7539zm97.961 52.93h-0.003906c-3.1211-2.9531-8.0078-2.9531-11.129 0l-44.527 44.527c-3.0703 3.0742-3.0703 8.0547 0 11.129l46.445 46.445-41.621-2.7695h0.003907c-12.934-0.86328-24.969-6.9062-33.383-16.766-8.4141-9.8555-12.492-22.695-11.309-35.602l3.1953-35.125c0.21484-2.332-0.62109-4.6406-2.2812-6.2969l-7.707-7.6211 0.78906-1.0078c5.3125-6.7461 10.809-13.715 16.531-20.129l14.664-16.457 9.2109-10.281 11.02 11.02c1.668 1.6406 3.9688 2.4727 6.2969 2.2852l35.125-3.1953v-0.003906c12.902-1.1758 25.73 2.9062 35.582 11.32 9.8516 8.4102 15.887 20.445 16.746 33.371l2.7695 41.613z"></path>

      </g>
      </svg>