<svg id="svg" fill="#228B22" stroke="#228B22" width="200" height="200" version="1.1" viewBox="144 144 512 512" xmlns="http://www.w3.org/2000/svg">
    <g id="IconSvg_bgCarrier" stroke-width="0"></g>
    <g id="IconSvg_tracerCarrier" stroke-linecap="round" stroke-linejoin="round" stroke="#CCCCCC" stroke-width="0">
      <g xmlns="http://www.w3.org/2000/svg">
  <path d="m499.75 258.43h-126.46c-9.0703 0-16.121 7.0547-16.121 16.121v53.402c0 9.0703 7.0547 16.121 16.121 16.121h126.46c9.0703 0 16.121-7.0547 16.121-16.121v-53.402c0-9.0703-7.5586-16.121-16.121-16.121zm1.0078 69.02c0 0.50391-0.50391 1.0078-1.0078 1.0078h-126.46c-0.50391 0-1.0078-0.50391-1.0078-1.0078v-52.898c0-0.50391 0.50391-1.0078 1.0078-1.0078h126.46c0.50391 0 1.0078 0.50391 1.0078 1.0078z"></path>
  <path d="m569.78 235.25h-11.586v-22.168c0-12.09-10.078-22.168-22.168-22.168h-267.02c-12.09 0-22.168 10.078-22.168 22.168v25.191h-14.105c-16.121 0-29.223 13.098-29.223 29.223 0 16.121 13.098 29.223 29.223 29.223h14.105v24.688h-14.105c-16.121 0-29.223 13.098-29.223 29.223 0 16.121 13.098 29.223 29.223 29.223h14.105v24.688h-14.105c-16.121 0-29.223 13.098-29.223 29.223 0 16.121 13.098 29.223 29.223 29.223h14.105v24.688h-14.105c-16.121 0-29.223 13.098-29.223 29.223 0 16.121 13.098 29.223 29.223 29.223h14.105v41.312c0 12.09 10.078 22.168 22.168 22.168h267.02c12.09 0 22.168-10.078 22.168-22.168v-22.168h11.586c14.609 0 26.703-12.09 26.703-26.703v-39.801c0-14.609-12.09-26.703-26.703-26.703h-11.586v-25.695h11.586c14.609 0 26.703-12.09 26.703-26.703v-39.801c0-14.609-12.09-26.703-26.703-26.703h-11.586v-25.695h11.586c14.609 0 26.703-12.09 26.703-26.703v-39.801c-0.50391-14.117-12.09-25.703-26.703-25.703zm-336.54 46.348c-7.5586 0-14.105-6.5508-14.105-14.105 0-7.5586 6.5508-14.105 14.105-14.105h14.105v28.215zm0 83.129c-7.5586 0-14.105-6.5508-14.105-14.105 0-7.5586 6.5508-14.105 14.105-14.105h14.105v28.211zm0 82.625c-7.5586 0-14.105-6.5508-14.105-14.105 0-7.5586 6.5508-14.105 14.105-14.105h14.105v28.215zm0 83.129c-7.5586 0-14.105-6.5508-14.105-14.105 0-7.5586 6.5508-14.105 14.105-14.105h14.105v28.215zm28.715 56.426v-84.637h4.5352c7.5586 0 14.105 6.5508 14.105 14.105 0 4.0312 3.5273 7.5586 7.5586 7.5586s7.5586-3.5273 7.5586-7.5586c0-16.121-13.098-29.223-29.223-29.223h-4.5352v-68.012h4.5352c7.5586 0 14.105 6.5508 14.105 14.105 0 4.0312 3.5273 7.5586 7.5586 7.5586s7.5586-3.5273 7.5586-7.5586c0-16.121-13.098-29.223-29.223-29.223h-4.5352v-67.508h4.5352c7.5586 0 14.105 6.5508 14.105 14.105 0 4.0312 3.5273 7.5586 7.5586 7.5586s7.5586-3.5273 7.5586-7.5586c0-16.121-13.098-29.223-29.223-29.223h-4.5352v-68.012h4.5352c7.5586 0 14.105 6.5508 14.105 14.105 0 4.0312 3.5273 7.5586 7.5586 7.5586s7.5586-3.5273 7.5586-7.5586c0-16.121-13.098-29.223-29.223-29.223h-4.5352v-25.191c0-4.0312 3.0234-7.0547 7.0547-7.0547h45.848v0.50391 386.42 0.50391l-45.848 0.003907c-4.0312 0.50391-7.0547-2.5195-7.0547-6.5508zm281.13 0c0 4.0312-3.0234 7.0547-7.0547 7.0547h-206.06v-0.50391-386.93-0.50391h206.06c4.0312 0 7.0547 3.0234 7.0547 7.0547zm26.699-99.754c6.5508 0 11.586 5.0391 11.586 11.586v39.801c0 6.5508-5.0391 11.586-11.586 11.586h-11.586v-62.973zm0-118.39c6.5508 0 11.586 5.0391 11.586 11.586v39.801c0 6.5508-5.0391 11.586-11.586 11.586h-11.586v-62.973zm11.086-67.512c0 6.5508-5.0391 11.586-11.586 11.586h-11.586l-0.003906-62.469h11.586c6.5508 0 11.586 5.0391 11.586 11.586z"></path>
 </g>

      </g>
     <g id="IconSvg_iconCarrier">
      <g xmlns="http://www.w3.org/2000/svg">
  <path d="m499.75 258.43h-126.46c-9.0703 0-16.121 7.0547-16.121 16.121v53.402c0 9.0703 7.0547 16.121 16.121 16.121h126.46c9.0703 0 16.121-7.0547 16.121-16.121v-53.402c0-9.0703-7.5586-16.121-16.121-16.121zm1.0078 69.02c0 0.50391-0.50391 1.0078-1.0078 1.0078h-126.46c-0.50391 0-1.0078-0.50391-1.0078-1.0078v-52.898c0-0.50391 0.50391-1.0078 1.0078-1.0078h126.46c0.50391 0 1.0078 0.50391 1.0078 1.0078z"></path>
  <path d="m569.78 235.25h-11.586v-22.168c0-12.09-10.078-22.168-22.168-22.168h-267.02c-12.09 0-22.168 10.078-22.168 22.168v25.191h-14.105c-16.121 0-29.223 13.098-29.223 29.223 0 16.121 13.098 29.223 29.223 29.223h14.105v24.688h-14.105c-16.121 0-29.223 13.098-29.223 29.223 0 16.121 13.098 29.223 29.223 29.223h14.105v24.688h-14.105c-16.121 0-29.223 13.098-29.223 29.223 0 16.121 13.098 29.223 29.223 29.223h14.105v24.688h-14.105c-16.121 0-29.223 13.098-29.223 29.223 0 16.121 13.098 29.223 29.223 29.223h14.105v41.312c0 12.09 10.078 22.168 22.168 22.168h267.02c12.09 0 22.168-10.078 22.168-22.168v-22.168h11.586c14.609 0 26.703-12.09 26.703-26.703v-39.801c0-14.609-12.09-26.703-26.703-26.703h-11.586v-25.695h11.586c14.609 0 26.703-12.09 26.703-26.703v-39.801c0-14.609-12.09-26.703-26.703-26.703h-11.586v-25.695h11.586c14.609 0 26.703-12.09 26.703-26.703v-39.801c-0.50391-14.117-12.09-25.703-26.703-25.703zm-336.54 46.348c-7.5586 0-14.105-6.5508-14.105-14.105 0-7.5586 6.5508-14.105 14.105-14.105h14.105v28.215zm0 83.129c-7.5586 0-14.105-6.5508-14.105-14.105 0-7.5586 6.5508-14.105 14.105-14.105h14.105v28.211zm0 82.625c-7.5586 0-14.105-6.5508-14.105-14.105 0-7.5586 6.5508-14.105 14.105-14.105h14.105v28.215zm0 83.129c-7.5586 0-14.105-6.5508-14.105-14.105 0-7.5586 6.5508-14.105 14.105-14.105h14.105v28.215zm28.715 56.426v-84.637h4.5352c7.5586 0 14.105 6.5508 14.105 14.105 0 4.0312 3.5273 7.5586 7.5586 7.5586s7.5586-3.5273 7.5586-7.5586c0-16.121-13.098-29.223-29.223-29.223h-4.5352v-68.012h4.5352c7.5586 0 14.105 6.5508 14.105 14.105 0 4.0312 3.5273 7.5586 7.5586 7.5586s7.5586-3.5273 7.5586-7.5586c0-16.121-13.098-29.223-29.223-29.223h-4.5352v-67.508h4.5352c7.5586 0 14.105 6.5508 14.105 14.105 0 4.0312 3.5273 7.5586 7.5586 7.5586s7.5586-3.5273 7.5586-7.5586c0-16.121-13.098-29.223-29.223-29.223h-4.5352v-68.012h4.5352c7.5586 0 14.105 6.5508 14.105 14.105 0 4.0312 3.5273 7.5586 7.5586 7.5586s7.5586-3.5273 7.5586-7.5586c0-16.121-13.098-29.223-29.223-29.223h-4.5352v-25.191c0-4.0312 3.0234-7.0547 7.0547-7.0547h45.848v0.50391 386.42 0.50391l-45.848 0.003907c-4.0312 0.50391-7.0547-2.5195-7.0547-6.5508zm281.13 0c0 4.0312-3.0234 7.0547-7.0547 7.0547h-206.06v-0.50391-386.93-0.50391h206.06c4.0312 0 7.0547 3.0234 7.0547 7.0547zm26.699-99.754c6.5508 0 11.586 5.0391 11.586 11.586v39.801c0 6.5508-5.0391 11.586-11.586 11.586h-11.586v-62.973zm0-118.39c6.5508 0 11.586 5.0391 11.586 11.586v39.801c0 6.5508-5.0391 11.586-11.586 11.586h-11.586v-62.973zm11.086-67.512c0 6.5508-5.0391 11.586-11.586 11.586h-11.586l-0.003906-62.469h11.586c6.5508 0 11.586 5.0391 11.586 11.586z"></path>
 </g>

      </g>
      </svg>